P2
# CREATOR: writeimage by MC - 07/1996
##genbini() rayon 6 centre 5 5
12 12
255

  0   0   0 255 255 255 255 255 255   0   0   0   
  0   0 255   0   0   0   0   0   0 255   0   0   
  0 255   0   0   0   0   0   0   0   0 255   0   
255   0   0   0   0   0   0   0   0   0   0 255   
255   0   0   0   0   0   0   0   0   0   0 255   
255   0   0   0   0   0   0   0   0   0   0 255   
255   0   0   0   0   0   0   0   0   0   0 255 
255   0   0   0   0   0   0   0   0   0   0 255   
255   0   0   0   0   0   0   0   0   0   0 255   
  0 255   0   0   0   0   0   0   0   0 255   0   
  0   0 255   0   0   0   0   0   0 255   0   0   
  0   0   0 255 255 255 255 255 255   0   0   0   
